<?xml version="1.0" encoding="utf-8"?>
<!-- Generator: Adobe Illustrator 25.0.1, SVG Export Plug-In . SVG Version: 6.00 Build 0)  -->
<svg version="1.1" id="Capa_1" xmlns="http://www.w3.org/2000/svg" xmlns:xlink="http://www.w3.org/1999/xlink" x="0px" y="0px"
	 viewBox="0 0 100 100.1" style="enable-background:new 0 0 100 100.1;" xml:space="preserve">
<g transform="matrix( 1, 0, 0, 1, 0,0) ">
	<g>
		<g id="a">
			<path d="M82.8,82.8c9.1-9,13.7-20,13.6-32.8c0-12.8-4.5-23.8-13.6-33c-9-9-20-13.6-32.8-13.5C37.2,3.5,26.2,8,17.1,17L17,17.1
				C8,26.2,3.5,37.2,3.5,50C3.5,62.8,8,73.8,17,82.8c9.1,9.1,20.1,13.7,33,13.6C62.8,96.5,73.8,91.9,82.8,82.8 M50,8.5
				c11.4,0,21.2,4,29.2,12.1c8.1,8.2,12.2,18,12.2,29.4c0,11.4-4.1,21.2-12.2,29.2C71.2,87.4,61.4,91.4,50,91.4
				c-11.4,0-21.2-4.1-29.4-12.2C12.5,71.2,8.5,61.4,8.5,50c0-11.4,4-21.2,12.1-29.4l0,0C28.8,12.5,38.6,8.5,50,8.5 M72.3,27.5
				c-6.2-6.2-13.6-9.3-22.3-9.2c-8.7,0-16.2,3.1-22.4,9.2c-6.2,6.2-9.3,13.7-9.2,22.5c0,8.7,3.1,16.2,9.2,22.3
				c6.2,6.2,13.7,9.3,22.4,9.3c8.7,0,16.2-3.1,22.3-9.3c6.2-6.2,9.4-13.6,9.3-22.3C81.7,41.2,78.6,33.8,72.3,27.5 M50,23.3
				c7.3,0,13.6,2.6,18.8,7.8c5.3,5.2,7.9,11.5,7.9,18.9c0,7.3-2.6,13.6-7.9,18.8C63.6,74,57.3,76.6,50,76.7
				c-7.3,0-13.6-2.6-18.9-7.8C26,63.6,23.4,57.3,23.4,50c0-7.4,2.6-13.7,7.8-18.9C36.4,25.9,42.7,23.3,50,23.3 M62,38
				c-3.3-3.3-7.3-5-12-5c-4.6,0-8.6,1.6-12,5l0,0c-3.3,3.4-5,7.4-5,12c0,4.7,1.7,8.7,5,12c3.4,3.3,7.4,5,12,5c4.7,0,8.7-1.7,12-5
				l0,0c3.3-3.3,5-7.3,5-12C67,45.4,65.3,41.4,62,38 M50,38c3.3,0,6.2,1.2,8.5,3.5c2.4,2.4,3.5,5.2,3.5,8.5c0,3.3-1.2,6.2-3.5,8.5
				l0,0C56.2,60.8,53.3,62,50,62c-3.3,0-6.1-1.2-8.5-3.5C39.2,56.2,38,53.3,38,50c0-3.3,1.2-6.1,3.5-8.5l0,0
				C43.9,39.2,46.7,38,50,38z"/>
		</g>
	</g>
</g>
</svg>
