<?xml version="1.0" encoding="utf-8"?>
<!-- Generator: Adobe Illustrator 25.0.1, SVG Export Plug-In . SVG Version: 6.00 Build 0)  -->
<svg version="1.1" id="Capa_1" xmlns="http://www.w3.org/2000/svg" xmlns:xlink="http://www.w3.org/1999/xlink" x="0px" y="0px"
	 viewBox="0 0 58 64.2" style="enable-background:new 0 0 58 64.2;" xml:space="preserve">
<path d="M0.1,25.2L0.1,25.2L0,51.2c0,8.5,14.6,13,29,13s29-4.5,29-13v-23l-0.1-3c-1-7.4-13.3-11.4-26.2-11.9l5.2,6.4
	C46.4,21,52,24.2,52,26.2c0,2.5-8.7,7-23,7s-23-4.5-23-7c0-1.5,3.2-3.7,8.9-5.3l-4-5.1C4.9,17.9,0.7,21,0.1,25.2z M52,34.4v16.8
	c0,1.6-3.6,4-10,5.6V37.9C45.5,37.3,48.9,36.1,52,34.4z M36,38.9v19c-4.7,0.5-9.3,0.5-14,0v-19c2.3,0.2,4.7,0.4,7,0.4
	C31.3,39.2,33.7,39.1,36,38.9z M16,37.9v18.8c-6.4-1.6-10-4-10-5.6V34.4C9.1,36.1,12.5,37.3,16,37.9L16,37.9z"/>
<rect x="18" y="-1.6" transform="matrix(0.7809 -0.6247 0.6247 0.7809 -4.2801 16.2298)" width="6" height="31.6"/>
</svg>
