<?xml version="1.0" encoding="utf-8"?>
<!-- Generator: Adobe Illustrator 25.0.1, SVG Export Plug-In . SVG Version: 6.00 Build 0)  -->
<svg version="1.1" id="Capa_1" xmlns="http://www.w3.org/2000/svg" xmlns:xlink="http://www.w3.org/1999/xlink" x="0px" y="0px"
	 viewBox="0 0 83.3 90.3" style="enable-background:new 0 0 83.3 90.3;" xml:space="preserve">
<path d="M75.9,49.9c2.2-2.8,2.1-7-0.5-9.6c-0.8-0.8-2-1.5-3.1-1.8c0.4-0.9,0.6-2,0.6-3c0-2-0.7-3.7-2.1-5.1
	c-2.6-2.6-6.6-2.8-9.4-0.7c-0.3-0.8-0.7-1.7-1.4-2.4c-1.4-1.5-3.2-2.4-5.2-2.4c-1.9-0.1-3.7,0.6-5.1,2c-0.2-0.3-0.4-0.7-0.7-0.9
	c-1.4-1.5-3.2-2.4-5.2-2.4c-2.1-0.1-4,0.7-5.3,2.1L28.1,35.9c-1.1-4.4-5.3-7.4-9.9-6.9c-1.3,0.1-2.4,0.7-3.2,1.6
	c-1.9-2.1-4.8-3.3-7.8-3c-2.8,0.3-5,2.7-5,5.6l0.1,15.1c0,4-0.5,8-1.5,11.6V60l0,0c-2.1,7.3,0,15.1,5.3,20.4
	c5.5,5.5,12.9,8.5,20.6,8.5c0.6,0,1.4,0,2-0.1c2.9,0.9,6,1.5,9.1,1.5c7.5,0,15-2.8,20.6-8.5l20.1-20.2c1.4-1.4,2.1-3.2,2.1-5.1
	c0-2-0.7-3.7-2.1-5.1C77.8,50.7,76.8,50.2,75.9,49.9z M41.5,28.6c0.6-0.6,1.5-0.8,2.2-0.8c0.8,0,1.6,0.4,2.1,0.9
	c0.3,0.4,0.5,0.9,0.5,1.5L29.1,47.8l-0.5-6.4L41.5,28.6z M9.1,77.5c-4.3-4.3-5.8-10.4-4.3-16.1l0,0c1.1-4.2,1.7-8.5,1.7-12.9
	L6.4,33.3c0-0.6,0.5-1.2,1.1-1.2c2.7-0.3,5.1,1.7,5.4,4.3l0.2,2.5l0.1,10.9c0,4-0.5,7.9-1.4,11.5c0,0.1-0.1,0.1-0.1,0.2
	c-2.1,7.3,0,15.1,5.3,20.4c0.5,0.5,1.1,1,1.7,1.6C15.2,82.2,11.8,80.2,9.1,77.5z M75.5,58.6L55.4,78.8c-9.7,9.7-25.5,9.7-35.2,0
	c-4.2-4.2-5.8-10.3-4.3-16v-0.1c1.1-4.3,1.7-8.5,1.7-12.9l0,0l0,0V38.8l0,0v-0.3v-3.9c0-0.6,0.5-1.2,1.1-1.2
	c2.7-0.3,5.1,1.7,5.4,4.3l0.7,10.5c0.2,1.6,1.2,2.9,2.7,3.4c1.6,0.5,3.1,0.1,4.3-0.9l20.6-20.6c0.6-0.6,1.1-0.9,2.2-0.8
	c0.8,0,1.6,0.4,2.1,0.9c0.9,1,0.8,3.1-0.3,4.3l0,0l0,0L41.1,49.9c-0.8,0.8-0.8,2.2,0,3c0.4,0.4,0.9,0.6,1.6,0.6
	c0.5,0,1.1-0.2,1.6-0.6l15.4-15.4l0,0l4.1-4.1c1.1-1.1,3-1.1,4.2,0c0.5,0.5,0.8,1.2,0.8,2.1s-0.3,1.6-0.8,2.1L48.3,57.1
	c-0.8,0.8-0.8,2.2,0,3c0.4,0.4,0.9,0.6,1.6,0.6c0.6,0,1.1-0.2,1.6-0.6l10.9-10.9l5.8-5.8c1.1-1.1,3-1.1,4.2,0c1.1,1.1,1.1,3,0,4.2
	l-4,4l0,0l-2.9,2.8l-10,10c-0.8,0.8-0.8,2.2,0,3c0.4,0.4,0.9,0.6,1.6,0.6s1.1-0.2,1.6-0.6l12.8-12.8c1.1-1.1,3-1.1,4.2,0
	c0.5,0.5,0.8,1.2,0.8,2.1C76.4,57.4,76.1,58.1,75.5,58.6z M62,14.2l5.3-11.4c0.5-1,1.8-1.6,2.8-1c1,0.5,1.6,1.8,1,2.8L66,16.1
	c-0.4,0.8-1.1,1.2-2,1.2c-0.3,0-0.6-0.1-0.9-0.2C62,16.6,61.6,15.3,62,14.2z M50.9,2.7c-0.3-1.1,0.4-2.3,1.6-2.6s2.3,0.3,2.6,1.5
	l3.2,12.1c0.3,1.1-0.4,2.3-1.6,2.6c-0.2,0-0.4,0.1-0.5,0.1c-0.9,0-1.8-0.6-2.1-1.6L50.9,2.7z M82,17.3l-11.4,5.3
	c-0.3,0.1-0.6,0.2-0.9,0.2c-0.8,0-1.6-0.4-2-1.2c-0.5-1,0-2.4,1-2.8l11.4-5.3c1-0.5,2.4,0,2.8,1C83.6,15.5,83.1,16.7,82,17.3z"/>
</svg>
