<?xml version="1.0" encoding="utf-8"?>
<!-- Generator: Adobe Illustrator 25.0.1, SVG Export Plug-In . SVG Version: 6.00 Build 0)  -->
<svg version="1.1" id="Capa_1" xmlns="http://www.w3.org/2000/svg" xmlns:xlink="http://www.w3.org/1999/xlink" x="0px" y="0px"
	 viewBox="0 0 90.1 90.1" style="enable-background:new 0 0 90.1 90.1;" xml:space="preserve">
<path d="M79.6,16.7L28.7,3.2c-0.3-0.1-0.6,0-0.9,0.2c-0.2,0.2-0.4,0.5-0.4,0.8v50.9c-2-2-4.7-3.2-7.6-3.2c-5.9,0-10.6,4.8-10.6,10.6
	c0,5.9,4.8,10.6,10.6,10.6s10.6-4.8,10.6-10.6V21l46.9,12.4v34.8c-2-2-4.7-3.2-7.6-3.2c-5.9,0-10.6,4.8-10.6,10.6
	c0,5.9,4.8,10.6,10.6,10.6s10.6-4.8,10.6-10.6v-58C80.3,17.2,80,16.8,79.6,16.7z"/>
</svg>
