<?xml version="1.0" encoding="utf-8"?>
<!-- Generator: Adobe Illustrator 25.0.1, SVG Export Plug-In . SVG Version: 6.00 Build 0)  -->
<svg version="1.1" id="Capa_1" xmlns="http://www.w3.org/2000/svg" xmlns:xlink="http://www.w3.org/1999/xlink" x="0px" y="0px"
	 viewBox="0 0 54 64" style="enable-background:new 0 0 54 64;" xml:space="preserve">
<path d="M24,0v9.1C10.1,9.9,0,16,0,24c0.1,3.1,1.5,6,3.9,8c-2.4,2-3.8,4.9-3.9,8c0,8,10.1,14.1,24,14.9V64h6v-9.1
	C43.9,54.1,54,48,54,40c-0.1-3.1-1.5-6-3.9-8c2.4-2,3.8-4.9,3.9-8c0-8-10.1-14.1-24-14.9V0H24z M48,40c0,4.2-9,9-21,9S6,44.2,6,40
	c0-1.5,1.2-3.1,3.2-4.5c5.6,2.5,11.7,3.7,17.8,3.5c6.1,0.1,12.2-1.1,17.8-3.5C46.8,36.9,48,38.5,48,40z M48,24c0,4.2-9,9-21,9
	S6,28.2,6,24c0-3.9,7.5-8.2,18-8.9V24h6v-8.9C40.5,15.8,48,20.1,48,24z"/>
<text transform="matrix(1 0 0 1 -23 97)" style="font-family:'HelveticaNeue-Bold'; font-size:5px;">Created by Gregor Cresnar</text>
<text transform="matrix(1 0 0 1 -23 102)" style="font-family:'HelveticaNeue-Bold'; font-size:5px;">from the Noun Project</text>
</svg>
