<?xml version="1.0" encoding="utf-8"?>
<!-- Generator: Adobe Illustrator 25.0.1, SVG Export Plug-In . SVG Version: 6.00 Build 0)  -->
<svg version="1.1" id="Capa_1" xmlns="http://www.w3.org/2000/svg" xmlns:xlink="http://www.w3.org/1999/xlink" x="0px" y="0px"
	 viewBox="0 0 143.3 159.6" style="enable-background:new 0 0 143.3 159.6;" xml:space="preserve">
<g>
	<path d="M143.3,44.3C143.3,19.8,111.2,0,71.6,0S0,19.8,0,44.3l0,0v71.1c0,24.4,32.1,44.3,71.6,44.3s71.6-19.8,71.6-44.3L143.3,44.3
		L143.3,44.3z M12,44.3c0-4.3,2-12.9,15.3-21.1C38.8,16.1,54.9,12,71.6,12s32.9,4.1,44.3,11.2c13.3,8.2,15.3,16.8,15.3,21.1
		s-2,12.9-15.3,21.1c-1.4,0.8-2.8,1.6-4.3,2.4c-1.4,0.1-2.8,0.7-3.8,1.8c-10.4,4.5-23.2,7-36.3,7c-16.7,0-32.8-4.1-44.3-11.2
		C14,57.1,12,48.6,12,44.3z M35.6,140.7c0.1-0.5,0.2-1,0.2-1.5V82.6c9.4,3.3,19.2,5.2,29.2,5.8v59C54.9,146.8,44.9,144.5,35.6,140.7
		z M77,88.4c9.9-0.4,19.8-2.2,29.2-5.3v56.1c0,0.7,0.1,1.4,0.3,2c-9.4,3.7-19.4,5.8-29.6,6.3L77,88.4z M12,68.8
		c3.6,3.3,7.5,6.1,11.8,8.4v56.9C13.6,126.6,12,119.3,12,115.3V68.8z M118.2,135V77.9c4.7-2.5,9.1-5.5,13.1-9.1v46.6
		C131.3,119.4,129.5,127.2,118.2,135L118.2,135z"/>
</g>
</svg>
